<?xml version="1.0" encoding="UTF-8" standalone="no" ?>
<!DOCTYPE svg PUBLIC "-//W3C//DTD SVG 1.1//EN" "http://www.w3.org/Graphics/SVG/1.1/DTD/svg11.dtd">
<svg xmlns="http://www.w3.org/2000/svg" xmlns:xlink="http://www.w3.org/1999/xlink" version="1.1" width="1080" height="1080" viewBox="0 0 1080 1080" xml:space="preserve">
<desc>Created with Fabric.js 4.2.0</desc>
<defs>
</defs>
<rect x="0" y="0" width="100%" height="100%" fill="transparent"></rect>
<g transform="matrix(1 0 0 1 540 540)" id="0375d409-e829-45a9-a9f6-b199310e0df8"  >
<rect style="stroke: none; stroke-width: 1; stroke-dasharray: none; stroke-linecap: butt; stroke-dashoffset: 0; stroke-linejoin: miter; stroke-miterlimit: 4; fill: rgb(255,255,255); fill-opacity: 0; fill-rule: nonzero; opacity: 1;" vector-effect="non-scaling-stroke"  x="-540" y="-540" rx="0" ry="0" width="1080" height="1080" />
</g>
<g transform="matrix(1 0 0 1 540 540)" id="a9922e61-548c-4a87-a9df-664b430b8a10"  >
</g>
<g transform="matrix(13.22 0 0 13.22 540 352.27)" id="d465ac7a-4540-46d9-bfb9-3febbd8430a0"  >
<path style="stroke: rgb(0,0,0); stroke-width: 0; stroke-dasharray: none; stroke-linecap: butt; stroke-dashoffset: 0; stroke-linejoin: miter; stroke-miterlimit: 4; fill: rgb(163,193,123); fill-rule: nonzero; opacity: 1;" vector-effect="non-scaling-stroke"  transform=" translate(-50, -50)" d="M 43.597 70.655 L 86.37700000000001 70.655 L 75.27 29.345 L 68.062 41.831 C 39.65 23.653 24.273 37.103 13.623 61.98 C 27.67 48.44 41.761 44.86 55.854 55.876 L 43.597 70.655 z" stroke-linecap="round" />
</g>
<g transform="matrix(1 0 0 1 540 712.12)" style="" id="63bb7d20-d98e-4076-af95-08a3fb10bbab"  >
		<text xml:space="preserve" font-family="Raleway" font-size="105" font-style="normal" font-weight="900" style="stroke: none; stroke-width: 1; stroke-dasharray: none; stroke-linecap: butt; stroke-dashoffset: 0; stroke-linejoin: miter; stroke-miterlimit: 4; fill: rgb(255,1,1); fill-rule: nonzero; opacity: 1; white-space: pre;" ><tspan x="-361.73" y="32.98" >volver a Jugar</tspan></text>
</g>
</svg>